P1
8 8
00000000
00000000
00001100
00010100
00100100
01111110
00000100
00000100
