P1
8 8
00000000
00000000
01111110
01000000
01111100
00000010
01000010
01111100
