P1
8 8
00000000
00000000
00111100
01000010
00111110
00000010
00000100
01111000
