P1
8 8
00011000
00100100
01100110
01111110
01100110
01100110
01100110
00000000
