P1
8 8
00111100
01000010
01000000
01000000
01000000
01000100
00111100
00000000
