P1
8 8
00111110
01000000
01000000
01000110
01000010
01000010
00111100
00000000
