P1
8 8
00111100
01000010
00000100
00001000
00001000
00000000
00001000
00000000
