P1
8 8
01111110
00011000
00011000
00011000
00011000
00011000
01111110
00000000
