P1
8 8
00111110
00000110
00000110
00000110
01000110
01000110
00111100
00000000
