P1
8 8
00001000
00010000
00100000
00100000
00010000
00001000
00000000
00000000
