P1
8 8
01000010
01100110
01011010
01011010
01000010
01000010
01000010
00000000
