P1
8 8
01000010
01100010
01010010
01001010
01000110
01000010
01000010
00000000
