P1
8 8
01111100
01100010
01100010
01111100
01100000
01100000
01100000
00000000
