P1
8 8
00111000
00001000
00000110
00000110
00001000
00111000
00000000
00000000
