P1
8 8
00111100
00000100
00000100
00000100
00000100
00111100
00000000
00000000
