P1
8 8
00111100
01000010
01000000
00111100
00000010
01000010
00111100
00000000
