P1
8 8
00000000
00000010
00000100
00001000
00010000
00100000
01000000
00000000
