P1
8 8
00000000
00011000
01011010
00111100
00100100
01000010
00000000
00000000
