P1
8 8
01100110
01100110
01100110
01100110
01100110
01100110
00111100
00000000
