P1
8 8
00000000
00000000
00000000
00000000
00000000
00000000
11111111
00000000
