P1
8 8
01000010
00100100
00011000
00011000
00100100
01000010
01000010
00000000
