P1
8 8
01111110
00000010
00000100
00001000
00010000
01100000
01111110
00000000
