P1
8 8
01100000
01100000
01100000
01100000
01100000
01100000
01111110
00000000
