P1
8 8
00000000
00011000
00011000
01111110
01111110
00011000
00011000
00000000
