P1
8 8
01111000
01001000
01000110
01000010
01000110
01001000
01111000
00000000
