P1
8 8
00000000
00000000
00001000
00011000
00001000
00001000
01111110
00000000
