P1
8 8
00011100
00010000
01100000
01100000
00010000
00011100
00000000
00000000
