P1
8 8
00111100
01000010
01000010
01000010
01011010
01000100
00111010
00000000
