P1
8 8
00111100
00100000
00100000
00100000
00100000
00111100
00000000
00000000
