P1
8 8
00000000
00000000
01111000
00000100
00001000
00010000
01111110
00000000
