P1
8 8
00011110
00100000
01000000
01111100
01000010
01000010
00111100
00000000
