P1
8 8
00000000
00000000
00111000
00000110
00111110
01100110
00111110
00000000
