P1
8 8
00111000
01000000
01000000
00111110
01000100
01000100
00111000
00000000
