P1
8 8
00000000
00011000
00100100
01000010
01011110
01010110
01001110
00100000
