P1
8 8
01111100
01000010
01000010
01111100
01000010
01000010
01111100
00000000
