P1
8 8
00000000
00010000
00001000
00000100
00000000
00000000
00000000
00000000
