P1
8 8
00111100
01100010
01100000
01100000
01100000
01100010
00111100
00000000
