P1
8 8
00000000
00011000
01100110
11000011
00000000
00000000
00000000
00000000
