P1
8 8
00000110
00000110
00000110
00111110
01100110
01100110
00111110
00000000
