P1
8 8
01111000
01100100
01100110
01100110
01100110
01100100
01111000
00000000
