P1
8 8
00011000
00111100
01011010
00111000
00011100
01011010
00111100
00011000
