P1
8 8
01111110
01000000
01000000
01111100
01000000
01000000
01111110
00000000
