P1
8 8
01111110
01100000
01100000
01111100
01100000
01100000
01100000
00000000
