P1
8 8
00011100
00110010
00110000
01111000
00110000
00110000
00110000
00000000
