P1
8 8
00000000
00000000
00010000
00001100
00000010
00001100
00010000
00000000
