P1
8 8
01100110
01100110
01100110
01111110
01100110
01100110
01100110
00000000
