P1
8 8
00000000
00100100
01111110
00100100
00100100
01111110
00100100
00000000
