P1
8 8
00000110
00000000
00011110
00000110
00000110
00000110
01000100
00111000
