P1
8 8
01100000
01100100
01101010
01110000
01110000
01101000
01100100
00000000
