P1
8 8
00111100
00001100
00001100
00001100
00001100
00001100
01111110
00000000
