P1
8 8
00000000
00000000
00001000
00110000
01000000
00110000
00001000
00000000
