P1
8 8
00000000
00000000
01111100
01100110
01100110
01111100
01100000
01100000
