P1
8 8
00000000
01100010
01100100
00001000
00010000
00100110
01000110
00000000
