P1
8 8
00011000
00011000
00011000
00000000
00000000
00011000
00011000
00011000
