P1
8 8
00000000
00000000
01011100
01100010
01100000
01100000
01100000
00000000
