P1
8 8
01111100
01100010
01100010
01111100
01101000
01101000
01100110
00000000
