P1
8 8
00000000
00000000
00111110
01100000
00011000
00000110
01111100
00000000
