P1
8 8
00111100
01100010
01100000
00111100
00000110
01000110
00111100
00000000
