P1
8 8
00110000
00110000
01111110
00110000
00110000
00110010
00011100
00000000
