P1
8 8
00000000
00010110
01101000
00000000
00000000
00000000
00000000
00000000
