P1
8 8
00000000
00000000
01100110
01100110
01100110
00100100
00011000
00000000
