P1
8 8
00000000
00000000
01000010
01000010
01011010
01100110
01000010
00000000
