P1
8 8
00000000
00000000
01000010
00100100
00011000
00100100
01000010
00000000
