P1
8 8
00000000
00000000
01000110
01000110
01000110
00111110
00000110
00111100
