P1
8 8
00000000
00000000
01111110
00000100
00011000
00100000
01111110
00000000
